<svg preserveAspectRatio="none" width="100%" height="100%" overflow="visible" style="display: block;" viewBox="0 0 25 25" fill="none" xmlns="http://www.w3.org/2000/svg">
<g id="Frame">
<path id="Vector" d="M12.437 4.04431H5.23785C4.21855 4.04431 3.7089 4.04431 3.31958 4.24268C2.97713 4.41717 2.6987 4.69559 2.52421 5.03805C2.32585 5.42737 2.32585 5.93701 2.32585 6.95633V17.3101C2.32585 18.3294 2.32585 18.839 2.52421 19.2283C2.6987 19.5708 2.97713 19.8492 3.31958 20.0237C3.7089 20.2221 4.21855 20.2221 5.23784 20.2221H19.636C20.6554 20.2221 21.165 20.2221 21.5543 20.0237C21.8968 19.8492 22.1752 19.5708 22.3497 19.2283C22.548 18.839 22.548 18.3294 22.548 17.3101V12.1332" stroke="var(--stroke-0, white)" stroke-width="1.21333" stroke-linecap="round" stroke-linejoin="round"/>
<path id="Vector_2" d="M6.37015 16.1772L7.52063 13.8762C8.45205 12.0133 8.91779 11.0819 9.54805 10.783C10.0965 10.5229 10.7328 10.5229 11.2812 10.783C11.9114 11.0819 12.3771 12.0133 13.3085 13.8762L14.459 16.1772M18.5035 16.1772L16.9868 14.1549C16.7049 13.7791 16.564 13.5912 16.4157 13.4582C15.8067 12.9122 14.9288 12.7868 14.1913 13.1405C14.0117 13.2266 13.8238 13.3675 13.4479 13.6494" stroke="var(--stroke-0, white)" stroke-width="1.21333" stroke-linecap="round" stroke-linejoin="round"/>
<path id="Vector_3" fill-rule="evenodd" clip-rule="evenodd" d="M22.8002 6.37571C21.0371 5.92121 19.6594 4.54358 19.2049 2.78059C19.1528 2.57839 18.8656 2.57839 18.8135 2.78059C18.359 4.54358 16.9813 5.92121 15.2182 6.37571C15.0159 6.42788 15.0159 6.71526 15.2182 6.76755C16.9813 7.22201 18.359 8.59969 18.8135 10.3622C18.8656 10.5644 19.1528 10.5644 19.2049 10.3622C19.6594 8.59969 21.0371 7.22201 22.8002 6.76755C23.0025 6.71526 23.0025 6.42788 22.8002 6.37571Z" fill="var(--fill-0, white)"/>
</g>
</svg>
