<svg preserveAspectRatio="none" width="100%" height="100%" overflow="visible" style="display: block;" viewBox="0 0 14 8" fill="none" xmlns="http://www.w3.org/2000/svg">
<g id="Group">
<path id="Vector" d="M6.81782 5.54197L12.0987 0.261134C12.2781 0.0811341 12.4906 -0.00581012 12.7362 0.000300996C12.9817 0.00641211 13.1945 0.0991896 13.3745 0.278634C13.5539 0.458634 13.6437 0.671412 13.6437 0.916968C13.6437 1.16252 13.5539 1.37502 13.3745 1.55447L7.84116 7.06947C7.70365 7.2097 7.53849 7.31981 7.35616 7.3928C7.18544 7.46339 7.00256 7.49991 6.81782 7.5003C6.63275 7.49976 6.44958 7.46295 6.27866 7.39197C6.0964 7.31922 5.93124 7.2094 5.79366 7.06947L0.260325 1.53613C0.175249 1.45557 0.10812 1.35796 0.0633194 1.24969C0.0185188 1.14143 -0.00294653 1.02493 0.000324889 0.907801C0.006436 0.668912 0.0992137 0.45919 0.278658 0.278634C0.458658 0.0991896 0.671436 0.0094674 0.916992 0.0094674C1.16255 0.0094674 1.37505 0.0991896 1.55449 0.278634L6.81782 5.54197Z" fill="var(--fill-0, white)" fill-opacity="0.6"/>
</g>
</svg>
