<svg preserveAspectRatio="none" width="100%" height="100%" overflow="visible" style="display: block;" viewBox="0 0 24 26" fill="none" xmlns="http://www.w3.org/2000/svg">
<g id="Vector">
<path d="M5.05977 5.13909C5.56249 4.54568 6.15962 4.00571 6.71019 3.45426C7.40114 2.76218 8.07611 2.0452 8.78467 1.3721C9.82309 0.385665 11.2329 -0.03981 12.6499 0.00291541C15.0772 0.0761081 16.0835 1.28801 17.6393 2.88593C18.3557 3.61077 19.0676 4.34011 19.775 5.07391C19.2291 5.16189 18.6601 5.12971 18.1084 5.12903L16.0744 5.1354L7.79523 5.13391C7.3176 5.13326 5.38733 5.0579 5.05977 5.13909Z" fill="var(--fill-0, white)"/>
<path d="M19.775 5.07391C20.1585 5.38337 20.3566 5.84368 20.628 6.23872C21.2274 7.61961 21.4213 8.88646 20.8435 10.3266C20.6776 10.741 20.4584 11.1474 20.177 11.4958C19.8843 11.8591 19.5322 12.1705 19.1976 12.4943L17.8759 13.7799C16.8728 14.7515 15.9035 15.7661 14.8817 16.717L19.9757 21.8573C20.7353 22.6074 21.4906 23.3616 22.2421 24.1197C22.5952 24.4742 22.9719 24.8209 23.31 25.189H18.9078C18.0655 25.1893 17.2191 25.1735 16.3772 25.2C15.6432 24.4141 14.8223 23.7028 14.1055 22.9027C12.5053 21.1154 11.6349 18.8581 11.7143 16.4537C11.7636 14.4585 12.492 12.5396 13.7797 11.0121C14.4998 10.1598 15.3553 9.39671 16.1587 8.62219C16.668 8.13105 17.315 7.56071 17.7553 7.01867C17.9096 6.93461 19.5248 5.3182 19.775 5.07391Z" fill="var(--fill-0, white)"/>
<path d="M5.0499 5.15199C5.14794 5.59312 5.07619 6.2993 5.07406 6.76582L5.07415 10.3361C5.07448 10.9021 5.02384 11.5144 5.08294 12.0738C5.02818 13.833 5.07337 15.606 5.07357 17.3665C5.07386 19.9717 5.05019 22.5789 5.0809 25.1842C3.39426 25.1858 1.70346 25.1615 0.0173097 25.1906L0.0220111 18.0065C0.0209088 16.8056 0.0368914 15.6018 0.0150084 14.4012C0.0437642 13.4012 -0.0649367 12.3581 0.0670742 11.3672C0.158918 10.6778 0.432016 9.9874 0.816475 9.40858C1.10993 8.96677 1.5085 8.61552 1.883 8.24503L3.16567 6.97427C3.70652 6.4385 4.46334 5.59806 5.0499 5.15199Z" fill="var(--fill-0, white)"/>
</g>
</svg>
